<svg width="16" height="16" viewBox="0 0 16 16" fill="none" xmlns="http://www.w3.org/2000/svg">
<g clip-path="url(#clip0)">
<path fill-rule="evenodd" clip-rule="evenodd" d="M0 5.75465C0 8.93496 2.67232 11.5093 5.96404 11.5093C9.25577 11.5093 11.9281 8.93496 11.9281 5.75465C11.9281 2.57435 9.25577 0 5.96404 0C2.67232 0 0 2.57435 0 5.75465ZM15.7439 14.3405L11.3031 10.013L9.8532 11.4259L14.294 15.7534C14.628 16.0789 15.1937 16.0863 15.5379 15.7508L15.7412 15.5527C16.085 15.2177 16.0867 14.6746 15.7439 14.3405ZM5.96405 9.8908C8.34275 9.8908 10.2672 8.03688 10.2672 5.75465C10.2672 3.47241 8.34275 1.61849 5.96405 1.61849C3.58534 1.61849 1.66087 3.47241 1.66087 5.75465C1.66087 8.03688 3.58534 9.8908 5.96405 9.8908Z" fill="#021F59"/>
</g>
<defs>
<clipPath id="clip0">
<rect width="16" height="16" fill="white"/>
</clipPath>
</defs>
</svg>
