<svg width="16" height="16" viewBox="0 0 16 16" fill="none" xmlns="http://www.w3.org/2000/svg">
<path fill-rule="evenodd" clip-rule="evenodd" d="M16 8C16 12.4183 12.4183 16 8 16C3.58172 16 0 12.4183 0 8C0 3.58172 3.58172 0 8 0C12.4183 0 16 3.58172 16 8ZM11.7466 6.82502C11.9885 6.86178 12.0861 7.17623 11.9105 7.35593L10.2909 9.01806C10.2206 9.08749 10.1894 9.18959 10.205 9.29168L10.5914 11.6358C10.6304 11.889 10.3767 12.081 10.1582 11.9625L8.1444 10.8558C8.05854 10.8068 7.95317 10.8068 7.86731 10.8558L5.85353 11.9625C5.63498 12.0851 5.37741 11.889 5.42034 11.6358L5.8028 9.29168C5.81841 9.19367 5.78719 9.09157 5.71694 9.01806L4.08953 7.35593C3.91391 7.17623 4.01147 6.86178 4.25344 6.82502L6.50528 6.48198C6.59894 6.46564 6.6848 6.4003 6.72773 6.31045L7.73072 4.17459C7.83999 3.9418 8.15611 3.9418 8.26538 4.17459L9.27227 6.31045C9.3152 6.40438 9.39715 6.46564 9.49472 6.48198L11.7466 6.82502Z" fill="#1D42A2"/>
</svg>
