<svg width="16" height="16" viewBox="0 0 16 16" fill="none" xmlns="http://www.w3.org/2000/svg">
<path fill-rule="evenodd" clip-rule="evenodd" d="M7.9998 9.90476C12.1266 9.90476 14.753 11.231 15.879 13.8836C16.2081 14.6589 15.8429 15.5528 15.0632 15.88C14.8746 15.9592 14.672 16 14.4673 16H1.53234C0.686051 16 0 15.3178 0 14.4762C0 14.2726 0.0410153 14.0711 0.120628 13.8836C1.24662 11.231 3.87301 9.90476 7.9998 9.90476ZM7.9998 11.4286C4.4341 11.4286 2.38728 12.4622 1.53234 14.4762H14.4673C13.6123 12.4622 11.5655 11.4286 7.9998 11.4286ZM7.9998 0C10.5386 0 12.5968 2.0467 12.5968 4.57143C12.5968 7.09616 10.5386 9.14286 7.9998 9.14286C5.46095 9.14286 3.40281 7.09616 3.40281 4.57143C3.40281 2.0467 5.46095 0 7.9998 0ZM7.9998 1.52381C6.30724 1.52381 4.93515 2.88828 4.93515 4.57143C4.93515 6.25458 6.30724 7.61905 7.9998 7.61905C9.69236 7.61905 11.0645 6.25458 11.0645 4.57143C11.0645 2.88828 9.69236 1.52381 7.9998 1.52381Z" fill="#2E3A53"/>
</svg>
